<mxfile host="app.diagrams.net" agent="Mozilla/5.0 (Windows NT 10.0; Win64; x64) AppleWebKit/537.36 (KHTML, like Gecko) Chrome/134.0.0.0 Safari/537.36 Edg/134.0.0.0" version="26.1.0">
  <diagram name="第 1 页" id="H5kva42kHXxaKJJULpxV">
    <mxGraphModel dx="1932" dy="1143" grid="0" gridSize="10" guides="1" tooltips="1" connect="1" arrows="1" fold="1" page="0" pageScale="1" pageWidth="827" pageHeight="1169" math="0" shadow="0">
      <root>
        <mxCell id="0" />
        <mxCell id="1" parent="0" />
        <mxCell id="QfqmfERdewMhbC5h7RYV-1" value="" style="rounded=0;whiteSpace=wrap;html=1;strokeWidth=2;shadow=0;arcSize=8;" vertex="1" parent="1">
          <mxGeometry x="51" y="327" width="160" height="320" as="geometry" />
        </mxCell>
        <mxCell id="QfqmfERdewMhbC5h7RYV-2" value="&lt;font style=&quot;font-size: 24px;&quot;&gt;&lt;b style=&quot;&quot;&gt;日志分析任务&lt;/b&gt;&lt;/font&gt;" style="text;html=1;align=center;verticalAlign=middle;whiteSpace=wrap;rounded=0;shadow=0;" vertex="1" parent="1">
          <mxGeometry x="50.5" y="374" width="161" height="30" as="geometry" />
        </mxCell>
        <mxCell id="QfqmfERdewMhbC5h7RYV-3" value="&lt;font style=&quot;font-size: 23px;&quot;&gt;日志解析&lt;/font&gt;" style="rounded=0;whiteSpace=wrap;html=1;strokeWidth=2;shadow=0;" vertex="1" parent="1">
          <mxGeometry x="72" y="425" width="120" height="44" as="geometry" />
        </mxCell>
        <mxCell id="QfqmfERdewMhbC5h7RYV-4" value="&lt;font style=&quot;font-size: 23px;&quot;&gt;异常检测&lt;/font&gt;" style="rounded=0;whiteSpace=wrap;html=1;strokeWidth=2;shadow=0;" vertex="1" parent="1">
          <mxGeometry x="72" y="496" width="120" height="44" as="geometry" />
        </mxCell>
        <mxCell id="QfqmfERdewMhbC5h7RYV-5" value="&lt;font style=&quot;font-size: 23px;&quot;&gt;故障诊断&lt;/font&gt;" style="rounded=0;whiteSpace=wrap;html=1;strokeWidth=2;shadow=0;" vertex="1" parent="1">
          <mxGeometry x="72" y="567" width="120" height="44" as="geometry" />
        </mxCell>
        <mxCell id="QfqmfERdewMhbC5h7RYV-6" value="" style="rounded=0;whiteSpace=wrap;html=1;strokeWidth=2;shadow=0;arcSize=8;" vertex="1" parent="1">
          <mxGeometry x="307" y="327" width="160" height="320" as="geometry" />
        </mxCell>
        <mxCell id="QfqmfERdewMhbC5h7RYV-7" value="&lt;span style=&quot;font-size: 24px;&quot;&gt;&lt;b&gt;LLM 训练&lt;/b&gt;&lt;/span&gt;" style="text;html=1;align=center;verticalAlign=middle;whiteSpace=wrap;rounded=0;shadow=0;" vertex="1" parent="1">
          <mxGeometry x="305.5" y="374" width="161" height="30" as="geometry" />
        </mxCell>
        <mxCell id="QfqmfERdewMhbC5h7RYV-8" value="&lt;span style=&quot;font-size: 23px;&quot;&gt;预训练&lt;/span&gt;" style="rounded=0;whiteSpace=wrap;html=1;strokeWidth=2;shadow=0;" vertex="1" parent="1">
          <mxGeometry x="327" y="425" width="120" height="44" as="geometry" />
        </mxCell>
        <mxCell id="QfqmfERdewMhbC5h7RYV-9" value="&lt;span style=&quot;font-size: 23px;&quot;&gt;持续预训练&lt;/span&gt;" style="rounded=0;whiteSpace=wrap;html=1;strokeWidth=2;shadow=0;" vertex="1" parent="1">
          <mxGeometry x="327" y="496" width="120" height="44" as="geometry" />
        </mxCell>
        <mxCell id="QfqmfERdewMhbC5h7RYV-10" value="&lt;font style=&quot;font-size: 23px;&quot;&gt;指令微调&lt;/font&gt;" style="rounded=0;whiteSpace=wrap;html=1;strokeWidth=2;shadow=0;" vertex="1" parent="1">
          <mxGeometry x="327" y="567" width="120" height="44" as="geometry" />
        </mxCell>
        <mxCell id="QfqmfERdewMhbC5h7RYV-11" value="" style="endArrow=classic;html=1;rounded=0;exitX=1;exitY=0.5;exitDx=0;exitDy=0;entryX=0;entryY=0.5;entryDx=0;entryDy=0;strokeWidth=2;shadow=0;" edge="1" parent="1" source="QfqmfERdewMhbC5h7RYV-1" target="QfqmfERdewMhbC5h7RYV-6">
          <mxGeometry width="50" height="50" relative="1" as="geometry">
            <mxPoint x="387" y="566" as="sourcePoint" />
            <mxPoint x="437" y="516" as="targetPoint" />
          </mxGeometry>
        </mxCell>
        <mxCell id="QfqmfERdewMhbC5h7RYV-12" value="" style="rounded=0;whiteSpace=wrap;html=1;strokeWidth=2;shadow=0;arcSize=8;" vertex="1" parent="1">
          <mxGeometry x="565" y="327" width="180" height="320" as="geometry" />
        </mxCell>
        <mxCell id="QfqmfERdewMhbC5h7RYV-13" value="&lt;span style=&quot;font-size: 24px;&quot;&gt;&lt;b&gt;多任务模型&lt;/b&gt;&lt;/span&gt;" style="text;html=1;align=center;verticalAlign=middle;whiteSpace=wrap;rounded=0;shadow=0;" vertex="1" parent="1">
          <mxGeometry x="574.5" y="346" width="161" height="30" as="geometry" />
        </mxCell>
        <mxCell id="QfqmfERdewMhbC5h7RYV-14" value="&lt;span style=&quot;font-size: 23px;&quot;&gt;基于任务&lt;/span&gt;&lt;div&gt;&lt;span style=&quot;font-size: 23px;&quot;&gt;指令微调&lt;/span&gt;&lt;div&gt;&lt;span style=&quot;font-size: 23px;&quot;&gt;&lt;b&gt;LogMT&lt;/b&gt;&lt;/span&gt;&lt;/div&gt;&lt;/div&gt;" style="rounded=0;whiteSpace=wrap;html=1;strokeWidth=2;shadow=0;" vertex="1" parent="1">
          <mxGeometry x="575" y="391" width="160" height="92" as="geometry" />
        </mxCell>
        <mxCell id="QfqmfERdewMhbC5h7RYV-16" value="&lt;span style=&quot;font-size: 23px;&quot;&gt;知识注入&lt;/span&gt;&lt;div&gt;&lt;span style=&quot;font-size: 23px;&quot;&gt;持续预训练&lt;br&gt;&lt;/span&gt;&lt;div&gt;&lt;div&gt;&lt;span style=&quot;font-size: 23px;&quot;&gt;&lt;b&gt;LogMT-Zero&lt;/b&gt;&lt;/span&gt;&lt;/div&gt;&lt;/div&gt;&lt;/div&gt;" style="rounded=0;whiteSpace=wrap;html=1;strokeWidth=2;shadow=0;" vertex="1" parent="1">
          <mxGeometry x="575" y="512" width="158" height="102" as="geometry" />
        </mxCell>
        <mxCell id="QfqmfERdewMhbC5h7RYV-17" value="" style="endArrow=classic;html=1;rounded=1;exitX=1;exitY=0.5;exitDx=0;exitDy=0;entryX=0;entryY=0.5;entryDx=0;entryDy=0;strokeWidth=2;shadow=0;strokeColor=default;curved=0;jumpStyle=none;" edge="1" parent="1" source="QfqmfERdewMhbC5h7RYV-6" target="QfqmfERdewMhbC5h7RYV-12">
          <mxGeometry width="50" height="50" relative="1" as="geometry">
            <mxPoint x="473" y="499" as="sourcePoint" />
            <mxPoint x="565" y="499" as="targetPoint" />
          </mxGeometry>
        </mxCell>
      </root>
    </mxGraphModel>
  </diagram>
</mxfile>
